<mxfile host="app.diagrams.net" modified="2023-05-19T13:51:46.100Z" agent="Mozilla/5.0 (Windows NT 10.0; Win64; x64; rv:109.0) Gecko/20100101 Firefox/114.0" etag="uKjamuF1cF2ZGxLVrohz" version="21.3.0" type="device">
  <diagram name="Página-1" id="fV0XBm2Oe3JTbl6_uHoQ">
    <mxGraphModel dx="798" dy="792" grid="1" gridSize="10" guides="1" tooltips="1" connect="1" arrows="1" fold="1" page="1" pageScale="1" pageWidth="827" pageHeight="1169" math="0" shadow="0">
      <root>
        <mxCell id="0" />
        <mxCell id="1" parent="0" />
        <mxCell id="6LI3ppPQ8ezPbjCwRTqL-1" value="&lt;p style=&quot;font-size: 13px;&quot; class=&quot;MsoNormal&quot;&gt;&lt;font style=&quot;font-size: 14px;&quot;&gt;&lt;b&gt;Mesa (&lt;u&gt;id&lt;/u&gt;, numero_integrantes, consumo_total, pago)&lt;/b&gt;&lt;/font&gt;&lt;/p&gt;" style="text;whiteSpace=wrap;html=1;" vertex="1" parent="1">
          <mxGeometry x="170" y="250" width="460" height="60" as="geometry" />
        </mxCell>
        <mxCell id="6LI3ppPQ8ezPbjCwRTqL-2" value="&lt;p style=&quot;font-size: 14px;&quot; class=&quot;MsoNormal&quot;&gt;&lt;b&gt;Prato (&lt;u&gt;id&lt;/u&gt;, nome, &lt;/b&gt;&lt;b&gt;preço, &lt;/b&gt;&lt;b&gt;categoria, tipo)&lt;/b&gt;&lt;/p&gt;" style="text;whiteSpace=wrap;html=1;" vertex="1" parent="1">
          <mxGeometry x="170" y="290" width="370" height="60" as="geometry" />
        </mxCell>
        <mxCell id="6LI3ppPQ8ezPbjCwRTqL-3" value="&lt;p style=&quot;font-size: 14px;&quot; class=&quot;MsoNormal&quot;&gt;&lt;b&gt;Pedido (&lt;u&gt;id_mesa&lt;/u&gt;, &lt;u&gt;id_prato&lt;/u&gt;, quantidade, data, entregue)&lt;/b&gt;&lt;/p&gt;" style="text;whiteSpace=wrap;html=1;" vertex="1" parent="1">
          <mxGeometry x="170" y="330" width="550" height="80" as="geometry" />
        </mxCell>
      </root>
    </mxGraphModel>
  </diagram>
</mxfile>
